<?xml version="1.0" standalone="no"?>
<!DOCTYPE svg PUBLIC "-//W3C//DTD SVG 20010904//EN"
 "http://www.w3.org/TR/2001/REC-SVG-20010904/DTD/svg10.dtd">
<svg version="1.0" xmlns="http://www.w3.org/2000/svg"
 width="928.000000pt" height="928.000000pt" viewBox="0 0 928.000000 928.000000"
 preserveAspectRatio="xMidYMid meet">
<metadata>
Created by potrace 1.14, written by Peter Selinger 2001-2017
</metadata>
<g transform="translate(0.000000,928.000000) scale(0.100000,-0.100000)"
fill="#000000" stroke="none">
<path d="M4017 7314 c-1 -1 -47 -4 -102 -8 -55 -3 -109 -8 -120 -10 -11 -2
-45 -7 -75 -10 -30 -4 -68 -9 -85 -11 -52 -9 -189 -35 -210 -40 -58 -13 -222
-56 -235 -62 -8 -3 -17 -7 -20 -8 -3 -1 -12 -5 -20 -8 -24 -10 -134 -47 -148
-50 -7 -2 -18 -9 -24 -15 -7 -7 -17 -12 -23 -12 -6 0 -39 -13 -73 -30 -34 -16
-67 -30 -72 -30 -6 0 -10 -4 -10 -10 0 -5 -6 -10 -14 -10 -7 0 -30 -11 -50
-25 -20 -13 -36 -22 -36 -20 0 2 -17 -7 -37 -20 -21 -14 -46 -31 -57 -38 -10
-6 -29 -20 -41 -29 -13 -10 -26 -18 -29 -18 -6 0 -44 -31 -72 -57 -7 -7 -17
-13 -22 -13 -16 0 -274 -259 -334 -335 -30 -38 -72 -97 -94 -130 -21 -33 -41
-62 -44 -65 -43 -43 -260 -536 -260 -592 0 -8 -5 -19 -12 -26 -7 -7 -9 -12 -5
-12 3 0 2 -11 -3 -25 -5 -14 -12 -36 -15 -48 -2 -12 -11 -49 -20 -82 -18 -70
-18 -74 -39 -185 -37 -204 -46 -310 -51 -638 -2 -136 -6 -258 -9 -272 -2 -14
-7 -56 -11 -95 -4 -38 -8 -73 -11 -76 -2 -3 -6 -25 -9 -49 -19 -155 -123 -417
-212 -537 -67 -89 -240 -239 -303 -261 -8 -3 -22 -10 -30 -17 -38 -29 -226
-99 -300 -111 -19 -3 -55 -10 -79 -15 -24 -5 -69 -12 -100 -15 -31 -3 -67 -7
-81 -9 -42 -8 -240 -19 -333 -19 l-87 0 0 -608 0 -609 2683 4 c1475 2 2693 6
2707 9 14 3 57 9 95 12 39 4 81 9 95 11 14 2 45 7 70 10 25 3 52 8 60 10 8 2
29 7 45 10 17 2 40 7 53 10 12 3 32 7 45 10 121 26 333 90 355 107 6 6 12 8
12 5 0 -8 153 58 259 113 204 105 370 227 537 394 114 115 184 200 272 335 61
92 153 271 190 367 10 27 22 58 27 69 26 66 73 205 69 205 -3 0 0 9 6 20 9 17
49 164 65 240 17 82 24 119 29 155 3 22 8 51 10 65 5 28 13 99 22 205 3 39 7
174 9 300 3 216 8 302 20 385 16 105 26 158 34 188 5 18 9 33 9 35 -2 5 35
126 53 177 50 135 175 328 254 391 11 9 36 31 55 48 19 17 39 31 43 31 5 0 23
10 40 22 18 13 34 23 37 23 3 1 32 15 65 31 83 42 228 92 315 107 14 3 41 8
60 12 19 3 49 8 65 10 17 2 30 4 30 5 0 5 275 22 383 24 l102 1 0 609 0 609
-212 -7 c-117 -4 -226 -8 -243 -11 -16 -2 -59 -6 -95 -9 -36 -4 -76 -8 -90
-11 -14 -3 -45 -8 -70 -10 -25 -3 -56 -7 -70 -11 -14 -3 -36 -7 -50 -9 -21 -2
-54 -10 -185 -41 -24 -6 -29 -7 -85 -23 -25 -8 -49 -14 -55 -16 -5 -1 -17 -5
-25 -8 -8 -3 -63 -24 -122 -46 -58 -21 -117 -45 -130 -52 -12 -7 -25 -14 -28
-14 -19 -4 -90 -41 -90 -47 0 -5 -9 -8 -20 -8 -11 0 -20 -5 -20 -11 0 -5 -4
-7 -10 -4 -5 3 -10 2 -10 -3 0 -4 -17 -16 -37 -26 -48 -23 -210 -134 -283
-194 -82 -67 -259 -248 -315 -322 -27 -36 -52 -67 -55 -70 -13 -12 -118 -179
-134 -214 -10 -21 -21 -34 -25 -28 -3 5 -6 277 -5 602 l0 593 -215 -6 c-119
-4 -227 -9 -240 -12 -13 -2 -56 -7 -95 -11 -39 -3 -82 -7 -96 -9 -40 -5 -104
-15 -130 -20 -14 -3 -41 -8 -60 -11 -137 -25 -415 -107 -533 -158 -93 -40
-166 -76 -214 -105 -29 -17 -53 -29 -53 -26 0 13 -242 -158 -338 -239 -56 -47
-198 -194 -251 -261 -31 -38 -59 -71 -63 -73 -5 -2 -8 -10 -8 -18 0 -8 -3 -14
-8 -14 -4 0 -16 -16 -26 -35 -10 -19 -26 -42 -35 -52 -19 -22 -58 -88 -74
-125 -6 -16 -15 -28 -19 -28 -4 0 -8 270 -8 601 l0 601 -166 -3 c-91 -2 -166
-4 -167 -5z m333 -1211 c0 -2 -14 -33 -31 -70 -49 -110 -60 -134 -86 -203 -20
-54 -58 -166 -69 -205 -18 -63 -55 -204 -58 -220 -2 -11 -9 -39 -14 -62 -5
-24 -8 -43 -5 -43 2 0 1 -5 -3 -11 -4 -7 -8 -26 -10 -43 -1 -17 -5 -44 -8 -61
-8 -49 -17 -118 -21 -171 -2 -27 -5 -49 -5 -49 -1 0 -3 -92 -5 -205 -4 -198
-12 -398 -20 -450 -2 -14 -6 -47 -10 -75 -9 -60 -28 -158 -40 -205 -1 -4 -26
-85 -30 -100 -18 -56 -71 -178 -87 -199 -10 -13 -18 -28 -18 -34 0 -19 -95
-143 -153 -201 -100 -98 -255 -187 -412 -235 -38 -12 -83 -26 -100 -31 -28 -9
-68 -17 -125 -25 -14 -3 -34 -6 -45 -9 -86 -18 -506 -39 -519 -25 -3 3 17 54
43 115 80 179 180 493 206 644 3 19 10 62 16 95 6 33 13 78 14 100 2 22 6 54
9 70 12 68 18 173 22 410 3 138 6 268 8 290 5 67 24 204 30 214 2 3 7 28 10
55 4 27 9 53 12 58 3 4 7 18 10 30 9 39 12 53 14 53 1 0 3 7 5 15 6 30 56 154
66 167 6 7 8 13 4 13 -4 0 -2 6 4 14 6 7 22 35 36 61 54 101 168 226 265 291
99 66 247 132 370 164 25 7 46 12 47 12 2 0 29 6 60 13 32 7 78 16 103 19 25
3 56 8 69 11 13 2 88 7 165 11 78 4 142 7 143 8 3 2 143 1 143 -1z m2460 -5
c0 -4 -14 -37 -31 -73 -16 -35 -30 -67 -29 -70 0 -3 -7 -20 -16 -37 -21 -41
-115 -308 -108 -308 2 0 0 -8 -5 -18 -6 -11 -12 -30 -15 -43 -3 -13 -10 -42
-16 -64 -16 -59 -20 -77 -25 -110 -2 -16 -9 -48 -14 -69 -5 -22 -9 -42 -9 -45
0 -3 -1 -8 -2 -11 -1 -3 -3 -14 -4 -25 -2 -11 -7 -45 -11 -75 -19 -138 -26
-268 -30 -535 -2 -132 -6 -250 -9 -262 -2 -12 -7 -48 -11 -80 -3 -32 -8 -65
-10 -73 -3 -8 -7 -29 -9 -45 -4 -26 -11 -61 -20 -100 -63 -264 -177 -462 -359
-620 -44 -38 -256 -152 -295 -158 -9 -1 -21 -5 -27 -9 -14 -8 -135 -41 -195
-53 -14 -3 -36 -7 -50 -10 -117 -25 -410 -44 -558 -36 l-23 1 19 38 c25 47 58
121 78 175 9 23 20 51 24 62 5 11 19 49 30 85 12 36 25 72 28 80 15 42 73 267
78 305 2 17 8 53 14 80 13 70 19 103 25 155 3 25 8 61 10 80 3 19 7 114 10
210 11 382 15 476 19 500 4 24 14 94 22 155 8 63 37 175 66 260 93 272 243
454 470 574 79 41 254 105 318 116 19 3 53 10 75 15 22 4 60 11 85 14 25 3 56
8 70 11 14 3 81 8 150 11 69 3 126 7 127 7 6 6 163 1 163 -5z"/>
</g>
</svg>
