<svg id="Layer_1" data-name="Layer 1" xmlns="http://www.w3.org/2000/svg" xmlns:xlink="http://www.w3.org/1999/xlink" viewBox="0 0 247.55 77.19"><defs><style>.cls-1{fill:none;}.cls-2{clip-path:url(#clip-path);}.cls-3{fill:#fff;}</style><clipPath id="clip-path"><polygon class="cls-1" points="202.76 76.49 44.77 77.19 44.78 0.7 202.78 0 202.76 76.49"/></clipPath></defs><g class="cls-2"><polygon class="cls-3" points="202.84 0 190.19 0 234.9 76.49 247.55 76.49 202.84 0"/><polygon class="cls-3" points="172.31 0 159.66 0 204.36 76.49 217.01 76.49 172.31 0"/><polygon class="cls-3" points="140.38 0 127.73 0 172.43 76.49 185.08 76.49 140.38 0"/><polygon class="cls-3" points="108.44 0 95.8 0 140.5 76.49 153.15 76.49 108.44 0"/><polygon class="cls-3" points="76.51 0 63.86 0 108.57 76.49 121.22 76.49 76.51 0"/><polygon class="cls-3" points="44.58 0 31.93 0 76.64 76.49 89.28 76.49 44.58 0"/><polygon class="cls-3" points="12.65 0 0 0 44.7 76.49 57.35 76.49 12.65 0"/></g></svg>