<svg id="Layer_1" data-name="Layer 1" xmlns="http://www.w3.org/2000/svg" viewBox="0 0 973.84 143.92"><defs><style>.cls-1{fill:#fff;}</style></defs><path class="cls-1" d="M23.65,138.91A40.13,40.13,0,0,1,6.49,125.55,35.18,35.18,0,0,1,0,105H27.83q.55,8,5.66,12.62t14,4.64q9.07,0,14.28-4.36A14.2,14.2,0,0,0,67,106.44,13.18,13.18,0,0,0,63.45,97a24.63,24.63,0,0,0-8.81-5.85A148.89,148.89,0,0,0,40.07,86.4a155.88,155.88,0,0,1-20.5-7.33A35.87,35.87,0,0,1,6,68.13Q.37,60.8.37,48.55a35,35,0,0,1,5.75-20A36.78,36.78,0,0,1,22.26,15.43,58.77,58.77,0,0,1,46,10.89q20,0,32.56,9.74T92.4,47.81H63.82a14.85,14.85,0,0,0-5.66-11q-5.28-4.37-14-4.36-7.62,0-12.15,3.9c-3,2.59-4.55,6.37-4.55,11.31a11.69,11.69,0,0,0,3.43,8.63,26.13,26.13,0,0,0,8.53,5.57q5.1,2.13,14.39,4.91A151,151,0,0,1,74.4,74.16,37,37,0,0,1,88.13,85.29q5.75,7.42,5.75,19.48a36.63,36.63,0,0,1-5.38,19.3,38.12,38.12,0,0,1-15.77,14.19q-10.4,5.28-24.68,5.29A61.57,61.57,0,0,1,23.65,138.91Z"/><path class="cls-1" d="M133.21,39.46V142.25h-26V39.46Z"/><path class="cls-1" d="M149.26,62.84a44.8,44.8,0,0,1,40.91-25.05,43.75,43.75,0,0,1,19.11,4.36,38.21,38.21,0,0,1,14.47,11.6V1.64H250.1V142.25H223.75V127a35.1,35.1,0,0,1-13.54,12.25A42.43,42.43,0,0,1,190,143.92a44.16,44.16,0,0,1-23.75-6.68,46.5,46.5,0,0,1-17-18.83q-6.22-12.15-6.21-27.93Q143.05,74.9,149.26,62.84Zm69.2,11.56A25.79,25.79,0,0,0,209,63.87a23.92,23.92,0,0,0-12.76-3.67,23.52,23.52,0,0,0-12.6,3.58,26.18,26.18,0,0,0-9.35,10.43,34.72,34.72,0,0,0-3.59,16.27,35.82,35.82,0,0,0,3.59,16.45,27,27,0,0,0,9.44,10.81,22.75,22.75,0,0,0,12.51,3.76A23.91,23.91,0,0,0,209,117.84a25.72,25.72,0,0,0,9.45-10.53A35.9,35.9,0,0,0,222,90.85,35.89,35.89,0,0,0,218.46,74.4Z"/><path class="cls-1" d="M363.35,98.65H288.2q.93,11.13,7.8,17.44a24,24,0,0,0,16.88,6.3q14.47,0,20.59-12.43h28a46.82,46.82,0,0,1-17.07,24.4q-12.62,9.55-31,9.56a53.65,53.65,0,0,1-26.63-6.59,46.32,46.32,0,0,1-18.37-18.65q-6.58-12.06-6.58-27.83,0-15.94,6.49-28a45.41,45.41,0,0,1,18.18-18.56q11.7-6.48,26.91-6.49a54.09,54.09,0,0,1,26.25,6.31,44.38,44.38,0,0,1,18,17.9q6.39,11.61,6.4,26.63A61.88,61.88,0,0,1,363.35,98.65ZM337.18,81.21q-.18-10-7.23-16a25.64,25.64,0,0,0-17.26-6A23.59,23.59,0,0,0,296.46,65q-6.58,5.85-8.07,16.24Z"/><path class="cls-1" d="M520.72,39.46,490.66,142.25h-28L443.91,70.89l-18.74,71.36H397L366.72,39.46h26.35l18.18,75.4,19.67-75.4h27.46l19.3,75.21,18.18-75.21Z"/><path class="cls-1" d="M557.27,39.46V142.25h-26V39.46Z"/><path class="cls-1" d="M660.43,49.57Q671.74,61.16,671.74,82v60.3h-26V85.47q0-12.24-6.12-18.83T623,60.05q-10.77,0-17,6.59t-6.21,18.83v56.78h-26V39.46h26v12.8A35.91,35.91,0,0,1,613,41.78,41.13,41.13,0,0,1,630.74,38Q649.1,38,660.43,49.57Z"/><path class="cls-1" d="M902.8,98.65H827.66q.93,11.13,7.79,17.44a24.07,24.07,0,0,0,16.89,6.3q14.48,0,20.59-12.43h28a46.82,46.82,0,0,1-17.07,24.4q-12.61,9.55-31,9.56a53.63,53.63,0,0,1-26.63-6.59,46.32,46.32,0,0,1-18.37-18.65q-6.58-12.06-6.58-27.83,0-15.94,6.49-28A45.41,45.41,0,0,1,826,44.28q11.68-6.48,26.91-6.49a54.12,54.12,0,0,1,26.25,6.31,44.3,44.3,0,0,1,18,17.9q6.4,11.61,6.41,26.63A60.7,60.7,0,0,1,902.8,98.65ZM876.64,81.21q-.18-10-7.23-16a25.65,25.65,0,0,0-17.26-6A23.59,23.59,0,0,0,835.92,65q-6.58,5.85-8.07,16.24Z"/><path class="cls-1" d="M955.38,42.62A36.29,36.29,0,0,1,973.84,38V65.25H967q-12.26,0-18.47,5.75T942.3,91v51.21h-26V39.46h26v16A36.44,36.44,0,0,1,955.38,42.62Z"/><rect class="cls-1" x="106.03" width="28.38" height="26.22" rx="2.05"/><rect class="cls-1" x="530.09" width="28.38" height="26.22" rx="2.05"/><path class="cls-1" d="M687.82,62.84a44.8,44.8,0,0,1,40.91-25.05,43.75,43.75,0,0,1,19.11,4.36,38.21,38.21,0,0,1,14.47,11.6V1.64h26.35V142.25H762.31V127a35.17,35.17,0,0,1-13.54,12.25,42.48,42.48,0,0,1-20.22,4.64,44.14,44.14,0,0,1-23.75-6.68,46.5,46.5,0,0,1-17-18.83q-6.23-12.15-6.22-27.93Q681.6,74.9,687.82,62.84Zm69.75,11.52a25.92,25.92,0,0,0-9.5-10.56,24.12,24.12,0,0,0-12.84-3.68,23.73,23.73,0,0,0-12.67,3.58,26.36,26.36,0,0,0-9.41,10.47,34.73,34.73,0,0,0-3.6,16.31,35.87,35.87,0,0,0,3.6,16.49,27.19,27.19,0,0,0,9.5,10.85,23,23,0,0,0,12.58,3.77,24.12,24.12,0,0,0,12.84-3.68,25.92,25.92,0,0,0,9.5-10.56,36,36,0,0,0,3.51-16.5A35.9,35.9,0,0,0,757.57,74.36Z"/></svg>