<svg id="Layer_1" data-name="Layer 1" xmlns="http://www.w3.org/2000/svg" viewBox="0 0 58.27 33.73"><defs><style>.cls-1{fill:#fff;}</style></defs><path class="cls-1" d="M58.27,0V7.64c-1.59,0-4.26,0-6.36,1.16-.86.47-3.48,1.91-3.48,8.06a19.47,19.47,0,0,1-2.08,9.36A13.23,13.23,0,0,1,41,31.62c-3.82,2.11-8,2.11-10.06,2.11H0V26.09a20.21,20.21,0,0,0,3.52-.23,7.28,7.28,0,0,0,4.24-2c1.38-1.44,2.08-3.8,2.08-7A19.53,19.53,0,0,1,11.92,7.5a13.23,13.23,0,0,1,5.35-5.39C21.09,0,25.3,0,27.32,0V7.64c-1.59,0-4.27,0-6.36,1.16-.86.47-3.48,1.91-3.48,8.06a19.64,19.64,0,0,1-2,9.23c1.6,0,4.27,0,6.36-1.16.86-.47,3.48-1.92,3.48-8.07A19.53,19.53,0,0,1,27.4,7.5a13.23,13.23,0,0,1,5.35-5.39C36.56,0,40.78,0,42.8,0V7.64c-1.6,0-4.27,0-6.36,1.16-.86.47-3.48,1.91-3.48,8.06a19.69,19.69,0,0,1-2,9.23c1.6,0,4.27,0,6.37-1.16.86-.47,3.47-1.92,3.47-8.07A19.53,19.53,0,0,1,42.87,7.5a13.35,13.35,0,0,1,5.35-5.39C52,0,56.25,0,58.27,0Z"/></svg>